<svg xmlns="http://www.w3.org/2000/svg" xml:space="preserve" width="655.359" height="655.359" style="shape-rendering:geometricPrecision;text-rendering:geometricPrecision;image-rendering:optimizeQuality;fill-rule:evenodd;clip-rule:evenodd" viewBox="0 0 6.827 6.827"><defs><style>.fil1{fill:#fffffe}</style></defs><g id="Layer_x0020_1"><rect width="6.827" height="6.827" rx=".853" ry=".853" style="fill:#42a5f5"/><g id="_470059224"><path id="_470059536" class="fil1" d="M3.392 1.024a.65.65 0 0 1 .653.653.65.65 0 0 1-.653.653.65.65 0 0 1-.653-.653.65.65 0 0 1 .653-.653zm.183.542a.065.065 0 0 1-.082-.04c-.009-.026-.04-.055-.101-.055-.048 0-.076.03-.079.061-.004.038.03.068.092.081.147.031.204.134.195.222a.199.199 0 0 1-.143.168v.04c0 .035-.03.065-.065.065a.065.065 0 0 1-.065-.066v-.037a.214.214 0 0 1-.16-.135.065.065 0 1 1 .124-.041c.01.027.044.054.1.054.048 0 .076-.031.08-.061.003-.038-.031-.069-.092-.081-.147-.031-.204-.134-.195-.222a.199.199 0 0 1 .143-.168v-.04a.065.065 0 0 1 .13 0v.038c.089.02.141.081.159.135a.065.065 0 0 1-.041.082z"/><path id="_470059032" d="M4.991 3.45a.11.11 0 0 0-.083.205c.281.115.43-.069.589-.266.104-.13.215-.267.365-.267a.111.111 0 0 0 0-.222c-.256 0-.401.18-.538.35-.106.13-.204.253-.333.2z" style="fill:#fffffe;fill-rule:nonzero"/><path id="_470059704" class="fil1" d="M.854 3.758zm1.13-.252a.123.123 0 1 1 0-.246.123.123 0 0 1 0 .246zm.847-.593a.111.111 0 0 0 0 .222h1a.111.111 0 0 0 0-.222h-1zm-.06-.333a3.6 3.6 0 0 1 .475-.03c.463 0 1.005.154 1.4.451.312.236.528.563.528.974 0 .171-.04.334-.115.485a1.41 1.41 0 0 1-.341.434l-.04.073c-.02.144-.046.286-.079.423a3.588 3.588 0 0 1-.122.404.014.014 0 0 1-.005.005.018.018 0 0 1-.01.003h-.564a.03.03 0 0 1-.005 0 .016.016 0 0 1-.007-.006.014.014 0 0 1-.003-.008v-.005a6.67 6.67 0 0 0 .083-.304l.047-.188-.189.044a2.487 2.487 0 0 1-.578.065 2.616 2.616 0 0 1-.5-.049l-.11-.022-.028.11a3.759 3.759 0 0 1-.11.355.012.012 0 0 1-.005.005.018.018 0 0 1-.01.003h-.569a.016.016 0 0 1-.008-.006.015.015 0 0 1-.003-.009l.001-.004a6.508 6.508 0 0 0 .149-.599l.016-.08-.07-.043a1.738 1.738 0 0 1-.294-.231 1.417 1.417 0 0 1-.216-.27l-.032-.053-.062-.004a1.52 1.52 0 0 1-.136-.014.432.432 0 0 1-.083-.02c-.115-.044-.189-.157-.238-.285a1.57 1.57 0 0 1-.084-.426v-.011a.063.063 0 0 1 .059-.056 1.244 1.244 0 0 0 .411-.1l.048-.022.017-.05c.045-.135.112-.26.204-.374.088-.109.199-.206.333-.29l.117-.072-.09-.105a1.296 1.296 0 0 1-.238-.432c.142.005.283.03.415.067.229.064.429.163.562.25l.08.017z"/></g></g></svg>